<?xml version="1.0" standalone="no"?>
<!DOCTYPE svg PUBLIC "-//W3C//DTD SVG 20010904//EN"
 "http://www.w3.org/TR/2001/REC-SVG-20010904/DTD/svg10.dtd">
<svg version="1.0" xmlns="http://www.w3.org/2000/svg"
 width="2000.000000pt" height="1500.000000pt" viewBox="0 0 2000.000000 1500.000000"
 preserveAspectRatio="xMidYMid meet">

<g transform="translate(0.000000,1500.000000) scale(0.100000,-0.100000)"
fill="#000000" stroke="none">
<path d="M4215 8552 c-85 -25 -195 -86 -240 -132 l-38 -39 42 -240 c47 -267
94 -481 151 -679 l39 -132 -24 -93 c-43 -169 -84 -458 -85 -589 0 -54 2 -58
45 -96 50 -44 179 -112 213 -112 32 0 123 77 263 223 l126 131 18 -55 c30 -92
85 -187 133 -230 60 -52 129 -72 236 -67 71 3 89 7 132 33 96 60 158 189 169
351 l6 89 -77 57 -76 58 -51 -46 c-28 -25 -63 -52 -78 -60 -27 -14 -29 -13
-80 41 -29 31 -59 65 -67 76 -16 23 -17 22 83 144 36 44 104 138 152 208 l85
128 -7 57 c-17 136 -102 330 -186 425 l-34 37 -67 -14 c-137 -30 -310 -146
-379 -255 l-28 -44 36 -69 c20 -38 64 -99 98 -136 l63 -68 -45 -104 c-101
-237 -263 -550 -284 -550 -12 0 -13 -9 16 223 48 403 81 828 91 1202 4 133 4
253 0 268 -4 18 -20 34 -49 49 -58 30 -215 36 -302 10z"/>
<path d="M9220 8563 c-52 -9 -207 -93 -252 -135 l-47 -43 5 -60 c37 -391 161
-1188 209 -1335 14 -43 14 -51 -8 -125 -14 -44 -34 -133 -46 -198 -26 -135
-26 -134 51 -173 79 -40 170 -56 293 -52 84 3 121 9 156 25 l47 21 -14 88 c-8
49 -33 149 -56 221 l-41 133 111 227 c61 126 120 249 131 276 15 34 26 47 41
47 25 0 25 -15 5 -445 -19 -381 -17 -391 69 -480 102 -104 241 -144 335 -96
66 34 166 153 221 263 l50 99 -57 77 c-31 42 -57 79 -59 80 -1 2 -50 -22 -109
-53 -58 -32 -108 -56 -110 -53 -2 2 16 62 40 133 75 220 133 479 156 694 l13
114 -32 27 c-91 76 -266 149 -393 165 -74 9 -205 -12 -214 -34 -47 -113 -97
-265 -149 -455 -86 -310 -109 -379 -125 -384 -16 -5 -15 4 29 458 40 397 58
639 62 795 l2 130 -44 25 c-39 21 -59 25 -145 26 -55 1 -111 0 -125 -3z"/>
<path d="M15480 8556 c-52 -15 -110 -43 -110 -54 0 -4 16 -126 35 -272 45
-350 67 -546 63 -567 -2 -10 -37 33 -90 114 -58 87 -110 152 -158 196 l-70 65
-60 -14 c-84 -19 -207 -68 -260 -104 -61 -40 -156 -136 -175 -176 -15 -31 -14
-40 14 -151 59 -233 80 -443 81 -791 0 -97 4 -153 14 -175 10 -26 40 -50 137
-110 153 -95 185 -100 252 -38 73 68 208 317 302 559 15 39 32 72 36 72 5 0 7
-19 4 -42 -14 -128 -26 -374 -20 -404 9 -50 112 -151 194 -192 174 -86 315 -3
450 266 23 46 38 88 34 95 -4 7 -29 42 -56 80 l-49 67 -116 -61 c-83 -45 -113
-57 -108 -44 15 40 56 270 76 425 40 325 86 965 78 1105 -3 59 -3 60 -51 92
-27 18 -72 40 -100 49 -69 22 -285 28 -347 10z m-158 -1045 c162 -34 148 -25
148 -89 0 -49 -8 -70 -66 -181 -68 -130 -135 -239 -185 -303 -21 -26 -35 -35
-49 -31 -28 7 -29 12 -19 63 21 109 39 306 39 433 0 127 1 138 18 133 9 -3 61
-15 114 -25z"/>
<path d="M3045 8447 c-151 -79 -283 -191 -362 -307 l-30 -45 7 -100 c5 -55 11
-147 14 -205 8 -122 13 -172 27 -257 10 -57 16 -66 69 -117 105 -101 358 -246
571 -330 97 -38 103 -48 94 -164 -8 -101 -17 -119 -63 -133 -36 -10 -42 -9
-93 24 -148 95 -345 174 -475 192 l-51 6 -22 -58 c-46 -117 -37 -257 23 -389
22 -47 28 -53 62 -58 82 -13 565 -66 601 -66 52 0 164 66 274 163 l85 75 32
128 c39 162 52 235 52 297 0 44 -5 56 -50 111 -93 115 -357 329 -595 483 -72
47 -105 74 -105 87 0 32 42 250 50 259 4 5 39 -17 78 -50 87 -73 203 -142 312
-186 137 -54 131 -55 184 4 95 105 141 255 133 424 -6 114 -12 138 -36 131 -9
-3 -101 -8 -206 -11 l-190 -7 -135 65 c-74 36 -144 68 -155 71 -12 3 -52 -11
-100 -37z"/>
<path d="M6954 8361 c-17 -4 -35 -11 -41 -14 -5 -4 -27 -112 -49 -241 l-38
-236 -73 -26 -73 -27 0 -63 c0 -35 5 -85 11 -112 l10 -50 59 -4 c33 -2 62 -7
66 -10 3 -4 21 -111 38 -239 l33 -233 -24 -75 c-43 -138 -65 -243 -58 -280 17
-92 117 -196 254 -264 70 -35 96 -42 155 -45 67 -3 75 -1 135 35 105 63 272
255 339 390 l25 51 -78 86 c-42 47 -82 86 -86 86 -5 0 -68 -48 -140 -107 -71
-60 -134 -110 -140 -111 -6 -3 -8 122 -7 345 l3 348 100 6 c55 4 123 7 152 8
l52 1 23 73 c32 102 32 233 0 303 l-23 51 -145 -29 c-80 -16 -147 -28 -148
-26 -1 2 1 84 5 183 4 99 5 183 1 187 -34 32 -263 59 -338 39z"/>
<path d="M5934 8020 c-180 -47 -446 -231 -470 -324 -3 -15 3 -64 15 -114 48
-198 72 -437 70 -686 0 -100 2 -188 6 -197 9 -23 212 -212 256 -238 41 -25
121 -28 190 -7 72 22 196 89 289 155 84 60 260 222 260 240 0 7 -92 163 -105
179 -2 2 -88 -40 -192 -93 -119 -61 -204 -99 -232 -102 l-43 -6 173 174 c196
196 386 405 411 451 9 16 20 59 24 94 7 72 -10 213 -29 231 -7 6 -55 28 -107
48 -99 37 -179 79 -290 150 -62 40 -120 66 -144 64 -6 0 -43 -8 -82 -19z m182
-507 c68 -20 124 -41 124 -47 0 -32 -262 -455 -282 -456 -4 0 -5 12 -3 28 10
53 25 308 25 410 0 56 3 102 6 102 3 0 62 -17 130 -37z"/>
<path d="M8232 8015 c-150 -52 -278 -130 -379 -231 -74 -73 -75 -81 -38 -218
49 -181 63 -370 65 -862 0 -33 195 -188 298 -237 56 -26 71 -29 131 -25 82 6
162 42 284 129 91 65 267 238 267 263 0 8 -27 57 -60 108 l-61 94 -209 -105
c-184 -93 -211 -104 -224 -91 -12 13 -12 25 -1 85 23 116 38 398 30 555 -3 80
-3 141 2 137 4 -5 46 -58 93 -120 100 -131 192 -212 223 -196 34 19 102 96
140 161 61 102 99 265 83 350 l-6 35 -108 27 c-68 18 -156 51 -242 91 -166 79
-192 83 -288 50z"/>
<path d="M11060 8016 c-102 -31 -171 -60 -260 -108 -113 -61 -155 -99 -170
-153 -25 -89 5 -284 68 -447 24 -62 29 -69 62 -75 48 -11 137 -8 186 6 l41 11
23 181 c21 161 26 182 44 191 16 7 51 -2 146 -36 69 -24 133 -47 143 -51 12
-5 17 -18 17 -44 0 -30 -13 -52 -78 -133 -80 -99 -264 -308 -300 -341 -19 -17
-21 -17 -77 22 -91 64 -114 68 -184 33 -32 -16 -75 -42 -95 -57 -31 -24 -36
-33 -36 -70 0 -60 26 -189 55 -274 31 -93 69 -161 111 -202 l34 -33 58 12 c76
16 156 73 207 148 l40 59 70 -52 c84 -64 176 -113 268 -143 83 -27 200 -25
260 4 55 27 121 97 154 164 26 53 28 66 28 177 0 86 -5 136 -17 176 l-18 56
-96 17 c-53 9 -97 16 -98 14 -6 -9 -111 -174 -113 -177 -5 -7 -313 31 -318 39
-3 4 59 51 138 103 171 115 305 221 409 323 l76 76 7 74 c5 45 2 114 -5 172
-13 97 -13 97 -60 142 -85 81 -280 167 -462 204 -104 21 -169 19 -258 -8z"/>
<path d="M12485 8017 c-144 -49 -298 -142 -392 -239 -64 -66 -67 -83 -37 -186
22 -77 31 -128 59 -322 4 -25 8 -162 10 -304 2 -185 7 -266 16 -283 24 -45
201 -177 295 -220 46 -21 67 -25 118 -21 125 8 317 126 475 294 61 64 81 92
77 106 -2 11 -30 59 -62 106 l-57 87 -208 -104 c-183 -92 -211 -103 -223 -91
-11 12 -13 26 -6 60 21 112 32 273 32 489 0 128 3 229 7 225 5 -5 37 -47 72
-94 82 -110 133 -165 186 -202 l43 -29 51 48 c29 26 67 72 86 101 67 105 111
267 98 364 l-7 46 -111 28 c-77 19 -153 47 -242 90 -157 77 -187 82 -280 51z"/>
<path d="M13770 8018 c-161 -41 -437 -167 -489 -222 -28 -29 -46 -242 -38
-436 11 -237 70 -704 94 -731 58 -67 428 -189 573 -189 66 0 151 29 280 96
134 70 201 120 212 159 18 66 60 308 75 435 17 148 23 470 9 565 -7 54 -13 64
-53 101 -88 81 -277 173 -438 213 -121 29 -144 30 -225 9z m130 -466 c88 -36
95 -40 103 -73 11 -47 21 -562 13 -632 -7 -50 -11 -59 -42 -78 -27 -16 -43
-20 -71 -14 -43 8 -164 67 -182 89 -16 19 -28 461 -16 609 7 97 8 99 38 118
43 26 49 25 157 -19z"/>
<path d="M16722 8029 c-73 -14 -209 -75 -295 -132 -94 -63 -193 -161 -203
-202 -4 -17 1 -63 15 -119 48 -205 76 -494 69 -705 -6 -158 -1 -178 58 -232
21 -20 71 -65 110 -101 88 -82 119 -98 187 -98 141 0 380 137 566 324 l84 85
-53 88 c-29 48 -55 89 -56 91 -1 2 -87 -40 -191 -93 -124 -64 -203 -99 -233
-102 l-45 -6 202 204 c256 259 358 372 385 429 19 38 22 61 21 145 0 56 -7
117 -14 139 -14 38 -18 41 -131 86 -64 25 -170 79 -235 118 -101 62 -173 95
-193 91 -3 -1 -24 -5 -48 -10z m154 -516 c142 -42 137 -32 77 -143 -45 -81
-219 -346 -234 -356 -8 -4 -9 2 -5 22 8 39 26 341 26 437 0 42 3 77 6 77 3 0
62 -17 130 -37z"/>
</g>
</svg>
